<svg xmlns="http://www.w3.org/2000/svg" version="1.1" xmlns:xlink="http://www.w3.org/1999/xlink" xmlns:svgjs="http://svgjs.dev/svgjs" width="1440" height="560" preserveAspectRatio="none" viewBox="0 0 1440 560"><g mask="url(&quot;#SvgjsMask1041&quot;)" fill="none"><rect width="1440" height="560" x="0" y="0" fill="rgba(78, 162, 227, 1)"></rect><path d="M0,586.991C116.784,587.189,235.844,582.602,337.699,525.47C442.966,466.424,540.231,378.444,576.839,263.434C612.218,152.284,572.088,32.38,529.172,-76.083C492.937,-167.661,407.71,-223.784,351.942,-304.959C286.737,-399.87,279.843,-547.342,174.098,-592.924C69.423,-638.044,-48.292,-566.653,-153.519,-522.838C-249.266,-482.97,-340.215,-431.968,-405.671,-351.516C-469.874,-272.604,-508.5,-175.777,-518.276,-74.517C-527.772,23.85,-488.52,115.437,-459.883,210.021C-426.61,319.915,-425.765,451.537,-336.965,524.327C-246.782,598.251,-116.609,586.794,0,586.991" fill="#2c90de"></path><path d="M1440 977.413C1519.6680000000001 987.511 1595.211 949.095 1667.246 913.601 1747.103 874.2529999999999 1835.446 838.057 1879.65 760.782 1925.189 681.174 1941.504 578.088 1908.01 492.71 1875.834 410.692 1770.328 390.196 1709.33 326.624 1652.7930000000001 267.701 1642.597 159.793 1564.789 135.00799999999998 1487.137 110.27300000000002 1407.285 167.312 1336.614 207.89800000000002 1277.896 241.62 1240.316 297.402 1194.772 347.509 1147.943 399.03 1079.9279999999999 438.04200000000003 1065.5149999999999 506.157 1050.901 575.223 1086.575 643.874 1118.767 706.702 1149.812 767.293 1194.927 816.462 1246.987 860.3340000000001 1305.717 909.827 1363.806 967.756 1440 977.413" fill="#70b4e8"></path></g><defs><mask id="SvgjsMask1041"><rect width="1440" height="560" fill="#ffffff"></rect></mask></defs></svg>